<svg xmlns="http://www.w3.org/2000/svg" viewBox="-46.87 0 688.49 688.49">
  <style>
    path { fill: #1b1638; }
    @media (prefers-color-scheme: dark) { path { fill: #fff; } }
  </style>
  <path d="M 196.3125,7.6576585e-5 C 104.77743,-0.0036536 0,0 0,0 c 0,0 0,160.50662 0,344.24275 0,204.03023 0,344.25001 0,344.25001 0,0 49.519678,-10e-6 83.5518,-10e-6 83.5513,0 83.5512,0 84.0102,-4.3125 0.2524,-2.3719 0.9676,-10.725 1.5879,-18.5625 0.6203,-7.8375 1.6113,-19.3125 2.2031,-25.5 0.5919,-6.1875 1.4354,-15.46875 1.875,-20.625 0.4396,-5.15625 0.9723,-10.96784 1.1836,-12.91407 0.2114,-1.94624 0.8697,-8.86499 1.4634,-15.375 0.5936,-6.51002 1.6004,-17.23593 2.2368,-23.83593 0.6363,-6.6 1.8345,-19.425 2.6631,-28.5 0.8285,-9.075 2.16,-22.9125 2.959,-30.75 0.7991,-7.8375 1.8068,-18.13125 2.2397,-22.875 0.4329,-4.74375 1.81,-19.25625 3.0601,-32.25 3.7861,-39.35594 6.5904,-69.04667 8.5693,-90.75 1.0344,-11.34375 2.0773,-21.76762 2.3174,-23.16357 2.7192,-15.80665 2.3769,-32.71273 -0.7368,-36.40723 -1.7637,-2.09271 -5.4573,-7.10134 -8.2075,-11.13134 -2.7502,-4.02999 -6.429,-9.30333 -8.1753,-11.71729 -2.8091,-3.88311 -12.4178,-17.82345 -14.4243,-20.92676 -0.4125,-0.638 -1.1727,-1.69386 -1.689,-2.34521 -2.209,-2.78647 -9.8022,-13.47438 -19.7549,-27.8086 -5.8714,-8.45625 -12.2836,-17.2499 -14.25,-19.54101 -5.8062,-6.7651 -5.7802,-16.20046 0.063,-22.98633 7.2408,-8.40846 36.3689,-52.61238 42.2329,-64.09131 6.0223,-11.78898 14.2011,-13.50273 30.0191,-6.28857 2.1325,0.97259 6.9149,3.00595 10.6274,4.51758 8.2312,3.35151 15.3935,6.34803 29.625,12.39697 5.9813,2.54226 12.9,5.39 15.375,6.32813 15.2117,5.76583 16.6606,7.29048 15.813,16.64502 -1.0642,11.74322 -5.4286,16.8837 -16.9702,19.98779 -31.5121,8.47508 -31.0979,8.57084 -50.2398,-11.65283 -4.7483,-5.01666 -4.9365,-5.13083 -6.1875,-3.74854 -1.8417,2.03504 -1.6185,3.27187 1.1895,6.61084 6.5779,7.82161 7.3399,10.86805 3.5244,14.07861 -2.4302,2.04486 -2.3398,2.01025 -10.2349,3.85987 -10.3472,2.4241 -11.6294,5.81233 -2.8432,7.51025 21.4185,4.13904 18.2577,2.93856 38.5737,14.63965 15.6989,9.04178 39.2693,33.23218 47.5562,48.80713 6.8255,12.82826 6.6734,12.63101 6.2373,8.13867 -1.4639,-15.07826 -11.996,-36.03368 -24.7412,-49.22315 -5.6986,-5.89728 -5.8483,-6.98876 -0.9566,-6.98876 3.396,0 3.2931,-0.0632 15.7793,9.78662 3.8373,3.02704 15.0692,8.88217 20.0039,10.42822 3.6431,1.14135 8.1683,4.41619 14.1211,10.22021 16.3452,15.93669 23.6369,17.58016 34.2847,7.72852 1.5654,-1.44839 3.3888,-2.94876 4.0517,-3.33545 0.6629,-0.3867 5.2179,-4.45162 10.1221,-9.03223 17.2593,-16.12027 17.0048,-15.99032 16.3945,-8.32324 -2.1761,27.33937 -14.5922,69.16124 -23.792,80.14453 -2.1916,2.6165 -5.1498,6.27656 -6.5742,8.13281 -1.4244,1.85625 -4.3233,5.43819 -6.4424,7.95996 -3.8528,4.58503 -3.8531,4.58503 -3.5991,11.25 0.9896,25.96973 3.1585,58.28524 8.5752,127.79004 0.8197,10.51875 2.1585,28.2375 2.9751,39.375 0.8167,11.1375 2.326,31.3875 3.3545,45 1.0286,13.6125 2.4007,32.00625 3.0498,40.875 0.6491,8.86875 1.8335,23.8875 2.6309,33.375 1.878,22.345 5.2192,65.7446 5.2192,67.7886 0,1.5867 0,1.5864 116.625,1.5864 83.8922,0 116.62502,-0.2304 116.62502,-0.8203 0,-0.9917 -19.61102,-47.93553 -25.50592,-61.0547 -3.0604,-6.81107 -27.3285,-64.28218 -33.0952,-78.375 -2.4475,-5.98125 -4.7712,-11.55 -5.1635,-12.375 -0.8447,-1.77637 -7.5116,-17.79085 -13.1133,-31.5 -2.1911,-5.3625 -5.2372,-12.61875 -6.7691,-16.125 -1.532,-3.50625 -4.0713,-9.58125 -5.644,-13.5 -1.5727,-3.91875 -4.5876,-11.175 -6.7002,-16.125 -2.1127,-4.95 -5.8262,-13.89375 -8.2515,-19.875 -2.4253,-5.98125 -6.6506,-16.275 -9.3896,-22.875 -2.739,-6.6 -5.5983,-13.6875 -6.3531,-15.75 -0.7547,-2.0625 -4.605,-11.84333 -8.5576,-21.73389 -8.2024,-20.52466 -8.2872,-18.49535 0.9273,-22.5249 72.4319,-31.67488 115.4281,-131.76329 93.5903,-217.8662 C 539.6856,55.039277 484.7951,7.6932066 401.625,0.75886658 395.9231,0.28345658 320.6865,0.00497658 196.3125,7.6576585e-5 Z M 232.0767,60.000077 c 5.9933,-0.01 22.3519,8.52307 28.3593,14.79346 5.1471,5.3724 4.5681,8.32338 -5.0332,25.699223 -2.3933,4.33125 -5.5069,10.02561 -6.9199,12.65478 -3.8989,7.2547 -6.838,10.55724 -8.7056,9.78223 -0.084,-0.0347 -3.357,-1.40337 -7.2758,-3.04102 -3.9187,-1.63766 -8.3062,-3.43176 -9.75,-3.98584 -1.4437,-0.55408 -4.8187,-2.00476 -7.5,-3.22412 -2.6812,-1.21937 -6.3937,-2.90584 -8.25,-3.74853 -1.8562,-0.84268 -4.6406,-2.05635 -6.1875,-2.69678 -4.2667,-1.76648 -4.4053,-1.32333 6.9052,-22.240723 11.4363,-21.14995 14.3054,-23.97614 24.3575,-23.99268 z m 49.0327,21.96387 c 3.9609,0.0268 8.8134,1.97579 15.6592,5.43457 17.616,8.9004 24.8448,18.456203 20.4023,26.969243 -4.9466,9.47911 -20.5925,35.02375 -25.0356,40.875 -1.7227,2.26875 -4.8869,6.74063 -7.0313,9.9375 -3.7885,5.6479 -4.5488,6.36575 -5.6118,5.30273 -0.5738,-0.57371 -0.4732,-1.37726 1.8281,-14.59863 2.2241,-12.77804 1.1079,-14.79576 -10.9438,-19.771 -21.2913,-8.7896 -21.918,-9.48352 -16.6787,-18.50097 2.2353,-3.84714 6.7025,-11.88838 9.9272,-17.869633 6.7558,-12.53061 10.8828,-17.82353 17.4844,-17.77881 z m 47.3144,36.801273 c 3.467,0.004 7.5185,1.57236 12.2154,4.69482 17.7033,11.76918 23.3442,26.91273 14.2646,38.29395 -1.9408,2.43273 -4.5398,5.72783 -5.7773,7.32275 -4.1892,5.39914 -5.3052,6.77585 -12.7837,15.77783 -7.2025,8.66974 -22.9874,25.97266 -28.1924,30.90381 -4.2446,4.02119 -8.6965,4.92731 -14.3306,2.9165 -6.1674,-2.20116 -19.7256,-13.70133 -20.8271,-17.66601 -1.6581,-5.96843 -1.1342,-7.45947 5.2763,-15.01611 3.165,-3.7308 5.8113,-7.26745 8.9825,-12.0044 0.6188,-0.92425 1.4668,-2.06031 1.8852,-2.52539 4.1541,-4.61725 18.5422,-25.93631 22.0825,-32.72021 1.3992,-2.68125 3.2155,-6.05625 4.0357,-7.5 0.8203,-1.44375 1.9741,-3.56842 2.5649,-4.72119 2.6551,-5.18117 6.1465,-7.76135 10.604,-7.75635 z m 41.2017,43.56006 c 2.5613,0.16617 5.061,1.6494 7.7432,4.38134 17.751,18.08012 17.2476,25.11425 -3.23,45.17139 -6.7444,6.60594 -15.4684,14.66499 -19.3872,17.90918 -3.9187,3.24419 -8.6258,7.28988 -10.459,8.98974 -5.6745,5.26198 -8.4311,7.21582 -10.1836,7.21582 -0.9274,0 -3.4139,-0.92812 -5.5254,-2.0625 -17.2884,-9.28817 -20.972,-20.15055 -10.3433,-30.5039 6.2735,-6.11097 18.1331,-18.87865 21.9361,-23.61475 3.4664,-4.31695 6.8108,-8.05208 8.4536,-9.44384 0.9738,-0.825 3.9156,-4.24261 6.5376,-7.59375 5.7479,-7.34629 10.1892,-10.72569 14.458,-10.44873 z m -97.648,15.11865 c 3.1427,-0.0223 2.743,2.50367 -0.7426,7.95263 -7.0952,11.0915 -15.6794,14.99736 -23.7334,10.79737 -14.8186,-7.72763 -16.1257,-9.04515 -9.6885,-9.77344 6.4594,-0.73079 17.304,-3.5818 26.2441,-6.89795 3.6563,-1.35621 6.2743,-2.06695 7.9204,-2.07861 z"/>
</svg>
